<svg width="12" height="7" viewBox="0 0 12 7" fill="none" xmlns="http://www.w3.org/2000/svg">
<path d="M1.12086 0.577985L1.12083 0.578018C0.952108 0.746792 0.857324 0.97567 0.857324 1.21432C0.857324 1.45297 0.952108 1.68184 1.12083 1.85062L1.12085 1.85063L5.3636 6.09338L5.36361 6.0934C5.53239 6.26212 5.76127 6.35691 5.99991 6.35691C6.23856 6.35691 6.46744 6.26212 6.63621 6.0934L6.63623 6.09338L10.879 1.85063L10.879 1.85065L10.8808 1.84877C11.0448 1.67903 11.1355 1.45169 11.1334 1.21571C11.1314 0.979736 11.0367 0.754005 10.8698 0.587137C10.703 0.42027 10.4772 0.325618 10.2413 0.323567C10.0053 0.321517 9.77795 0.412232 9.60821 0.576174L9.60819 0.576158L9.60635 0.578001L5.99991 4.18444L2.39348 0.578001L2.39346 0.577985C2.22469 0.409262 1.99581 0.314478 1.75716 0.314478C1.51852 0.314478 1.28964 0.409262 1.12086 0.577985Z" fill="#333333" stroke="#333333" stroke-width="0.3"/>
</svg>
