<svg width="26" height="22" viewBox="0 0 26 22" fill="none" xmlns="http://www.w3.org/2000/svg">
<path d="M24.6586 7.90062L24.6586 7.90065L24.6625 7.90506C24.7137 7.9632 24.7518 8.03173 24.774 8.10595C24.7961 8.17948 24.8021 8.25688 24.7918 8.33294L23.0485 19.7207L23.0484 19.7213C22.995 20.073 22.8164 20.3936 22.5453 20.624C22.2743 20.8544 21.9291 20.979 21.5734 20.975V20.975H21.5689L4.45012 20.975L4.4456 20.975C4.08988 20.979 3.74469 20.8544 3.47364 20.624C3.20259 20.3936 3.02393 20.073 2.9706 19.7213L2.97041 19.7201L1.20809 8.3306C1.20806 8.33043 1.20804 8.33026 1.20801 8.3301C1.19642 8.25322 1.20164 8.17474 1.22332 8.10008L0.839177 7.98856L1.22332 8.10008C1.24504 8.02525 1.28277 7.95604 1.3339 7.89724C1.38503 7.83845 1.44833 7.79147 1.51942 7.75956C1.5905 7.72766 1.66767 7.71159 1.74559 7.71247L1.74559 7.7125H1.75012H7.37512H7.77512V7.3125V3.5625C7.77512 2.92267 8.02929 2.30904 8.48172 1.85661C8.93415 1.40417 9.54778 1.15 10.1876 1.15H15.8126C16.4525 1.15 17.0661 1.40417 17.5185 1.8566C17.9709 2.30904 18.2251 2.92267 18.2251 3.5625V7.3125V7.7125H18.6251H24.2501C24.3278 7.71249 24.4045 7.72931 24.475 7.76178C24.5455 7.79426 24.6082 7.84163 24.6586 7.90062ZM16.7501 7.7125H17.1501V7.3125V3.5625C17.1501 3.20777 17.0092 2.86758 16.7584 2.61674C16.5075 2.36591 16.1673 2.225 15.8126 2.225H10.1876C9.83289 2.225 9.49269 2.36591 9.24186 2.61674C8.99103 2.86757 8.85012 3.20777 8.85012 3.5625V7.3125V7.7125H9.25012H16.7501ZM21.5689 19.9H21.9121L21.9642 19.5607L23.5486 9.24824L23.6194 8.7875H23.1532H2.84699H2.38084L2.45163 9.24824L4.03601 19.5607L4.08813 19.9H4.43137H21.5689Z" fill="#333333" stroke="#333333" stroke-width="0.8"/>
</svg>
