<svg width="40" height="28" viewBox="0 0 40 28" fill="none" xmlns="http://www.w3.org/2000/svg">
<path d="M5 21.25C5 20.9185 5.1317 20.6005 5.36612 20.3661C5.60054 20.1317 5.91848 20 6.25 20H13.75C14.0815 20 14.3995 20.1317 14.6339 20.3661C14.8683 20.6005 15 20.9185 15 21.25C15 21.5815 14.8683 21.8995 14.6339 22.1339C14.3995 22.3683 14.0815 22.5 13.75 22.5H6.25C5.91848 22.5 5.60054 22.3683 5.36612 22.1339C5.1317 21.8995 5 21.5815 5 21.25ZM5 13.75C5 13.4185 5.1317 13.1005 5.36612 12.8661C5.60054 12.6317 5.91848 12.5 6.25 12.5H23.75C24.0815 12.5 24.3995 12.6317 24.6339 12.8661C24.8683 13.1005 25 13.4185 25 13.75C25 14.0815 24.8683 14.3995 24.6339 14.6339C24.3995 14.8683 24.0815 15 23.75 15H6.25C5.91848 15 5.60054 14.8683 5.36612 14.6339C5.1317 14.3995 5 14.0815 5 13.75ZM5 6.25C5 5.91848 5.1317 5.60054 5.36612 5.36612C5.60054 5.1317 5.91848 5 6.25 5H33.75C34.0815 5 34.3995 5.1317 34.6339 5.36612C34.8683 5.60054 35 5.91848 35 6.25C35 6.58152 34.8683 6.89946 34.6339 7.13388C34.3995 7.3683 34.0815 7.5 33.75 7.5H6.25C5.91848 7.5 5.60054 7.3683 5.36612 7.13388C5.1317 6.89946 5 6.58152 5 6.25Z" fill="white"/>
</svg>
