<svg width="13" height="13" viewBox="0 0 13 13" fill="none" xmlns="http://www.w3.org/2000/svg">
<path d="M8.25971 6.49997L11.6658 3.09387C12.1517 2.608 12.1517 1.82025 11.6658 1.33438C11.1799 0.848502 10.3922 0.848502 9.90632 1.33438L6.50022 4.74048L3.09412 1.33438C2.60824 0.848502 1.8205 0.848502 1.33462 1.33438C0.848746 1.82025 0.848746 2.608 1.33462 3.09387L4.74072 6.49997L1.33462 9.90607C0.848746 10.3919 0.848746 11.1797 1.33462 11.6656C1.57756 11.9085 1.89596 12.03 2.21436 12.03C2.53275 12.03 2.85118 11.9085 3.09409 11.6656L6.50022 8.25947L9.90632 11.6656C10.1493 11.9085 10.4677 12.03 10.7861 12.03C11.1045 12.03 11.4228 11.9085 11.6658 11.6656C12.1517 11.1797 12.1517 10.3919 11.6658 9.90607L8.25971 6.49997Z" fill="white"/>
</svg>
