<svg width="14" height="12" viewBox="0 0 14 12" fill="none" xmlns="http://www.w3.org/2000/svg">
<path d="M13.0449 2.53783L13.0447 2.53807L5.75127 10.5987L5.579 10.7891L5.39327 10.6118L0.983146 6.40212L0.976973 6.39622L0.977077 6.39612C0.832716 6.24859 0.751303 6.05075 0.750015 5.84433C0.748728 5.63792 0.827666 5.43908 0.970176 5.28975C1.11269 5.14042 1.30763 5.05229 1.51388 5.04394C1.72012 5.03559 1.92155 5.10768 2.07566 5.24499L2.08207 5.2507L2.08197 5.25081L5.49491 8.50838L11.8641 1.4703L13.0449 2.53783ZM13.0449 2.53783C13.1863 2.38114 13.2597 2.17472 13.249 1.96393C13.2382 1.75368 13.1447 1.55626 12.9888 1.41485M13.0449 2.53783L12.9888 1.41485M12.9888 1.41485L12.989 1.41457C12.9115 1.34434 12.8209 1.29006 12.7224 1.25485C12.6239 1.21963 12.5195 1.20417 12.415 1.20935C12.3105 1.21452 12.2081 1.24023 12.1136 1.28501C12.0191 1.32978 11.9343 1.39275 11.8641 1.4703L12.9888 1.41485Z" fill="white" stroke="white" stroke-width="0.5"/>
</svg>
