<svg width="27" height="24" viewBox="0 0 27 24" fill="none" xmlns="http://www.w3.org/2000/svg">
<path d="M11.4001 24C11.0818 24 10.7766 23.8736 10.5516 23.6485C10.3265 23.4235 10.2001 23.1183 10.2001 22.8C10.2001 22.4817 10.3265 22.1765 10.5516 21.9515C10.7766 21.7264 11.0818 21.6 11.4001 21.6H21.4001C22.2488 21.6 23.0627 21.2629 23.6628 20.6627C24.263 20.0626 24.6001 19.2487 24.6001 18.4V5.6C24.6001 4.75131 24.263 3.93737 23.6628 3.33726C23.0627 2.73714 22.2488 2.4 21.4001 2.4H11.4001C11.0818 2.4 10.7766 2.27357 10.5516 2.04853C10.3265 1.82348 10.2001 1.51826 10.2001 1.2C10.2001 0.88174 10.3265 0.576515 10.5516 0.351472C10.7766 0.126428 11.0818 0 11.4001 0H21.4001C22.8853 0 24.3097 0.589998 25.3599 1.6402C26.4101 2.69041 27.0001 4.11479 27.0001 5.6V18.4C27.0001 19.8852 26.4101 21.3096 25.3599 22.3598C24.3097 23.41 22.8853 24 21.4001 24H11.4001ZM11.3857 5.9184C11.5015 5.81143 11.6372 5.72831 11.7851 5.67379C11.9329 5.61927 12.0901 5.59443 12.2476 5.60067C12.4051 5.60691 12.5598 5.64411 12.7029 5.71016C12.8461 5.77621 12.9748 5.8698 13.0817 5.9856L17.8817 11.1856C18.0866 11.4073 18.2004 11.6981 18.2004 12C18.2004 12.3019 18.0866 12.5927 17.8817 12.8144L13.0817 18.0144C12.9746 18.1301 12.8459 18.2235 12.7027 18.2894C12.5595 18.3553 12.4048 18.3924 12.2473 18.3985C12.0898 18.4045 11.9326 18.3796 11.7848 18.3249C11.637 18.2703 11.5014 18.1871 11.3857 18.08C11.27 17.9729 11.1766 17.8442 11.1107 17.701C11.0448 17.5578 11.0077 17.4031 11.0016 17.2456C10.9893 16.9275 11.1039 16.6176 11.3201 16.384L14.2609 13.1984H1.8001C1.48184 13.1984 1.17661 13.072 0.95157 12.8469C0.726526 12.6219 0.600098 12.3167 0.600098 11.9984C0.600098 11.6801 0.726526 11.3749 0.95157 11.1499C1.17661 10.9248 1.48184 10.7984 1.8001 10.7984H14.2593L11.3185 7.6144C11.2115 7.49864 11.1284 7.36294 11.0739 7.21505C11.0194 7.06716 10.9945 6.90998 11.0008 6.75248C11.007 6.59498 11.0442 6.44026 11.1103 6.29715C11.1763 6.15403 11.2699 6.02533 11.3857 5.9184Z" fill="#727272"/>
</svg>
