<svg width="19" height="18" viewBox="0 0 19 18" fill="none" xmlns="http://www.w3.org/2000/svg">
<path d="M12.3001 18C12.5388 18 12.7677 17.9052 12.9365 17.7364C13.1053 17.5676 13.2001 17.3387 13.2001 17.1C13.2001 16.8613 13.1053 16.6324 12.9365 16.4636C12.7677 16.2948 12.5388 16.2 12.3001 16.2H4.8001C4.16358 16.2 3.55313 15.9471 3.10304 15.4971C2.65295 15.047 2.4001 14.4365 2.4001 13.8V4.2C2.4001 3.56348 2.65295 2.95303 3.10304 2.50294C3.55313 2.05286 4.16358 1.8 4.8001 1.8H12.3001C12.5388 1.8 12.7677 1.70518 12.9365 1.5364C13.1053 1.36761 13.2001 1.13869 13.2001 0.9C13.2001 0.661305 13.1053 0.432386 12.9365 0.263604C12.7677 0.094821 12.5388 0 12.3001 0H4.8001C3.68619 0 2.6179 0.442499 1.83025 1.23015C1.0426 2.0178 0.600098 3.08609 0.600098 4.2V13.8C0.600098 14.9139 1.0426 15.9822 1.83025 16.7698C2.6179 17.5575 3.68619 18 4.8001 18H12.3001ZM13.4893 4.4388C13.5761 4.35857 13.6779 4.29623 13.7888 4.25534C13.8997 4.21446 14.0176 4.19582 14.1357 4.2005C14.2539 4.20518 14.3699 4.23309 14.4772 4.28262C14.5846 4.33216 14.6811 4.40235 14.7613 4.4892L18.3613 8.3892C18.515 8.55549 18.6003 8.77359 18.6003 9C18.6003 9.22641 18.515 9.44451 18.3613 9.6108L14.7613 13.5108C14.5991 13.686 14.374 13.7896 14.1355 13.7988C13.8969 13.8081 13.6645 13.7222 13.4893 13.56C13.3141 13.3978 13.2105 13.1727 13.2013 12.9342C13.192 12.6956 13.2779 12.4632 13.4401 12.288L15.6457 9.8988H6.3001C6.0614 9.8988 5.83248 9.80398 5.6637 9.6352C5.49492 9.46641 5.4001 9.23749 5.4001 8.9988C5.4001 8.7601 5.49492 8.53119 5.6637 8.3624C5.83248 8.19362 6.0614 8.0988 6.3001 8.0988H15.6445L13.4389 5.7096C13.3587 5.62278 13.2963 5.521 13.2554 5.41008C13.2146 5.29917 13.1959 5.18128 13.2006 5.06316C13.2053 4.94504 13.2332 4.829 13.2827 4.72166C13.3323 4.61433 13.4025 4.5178 13.4893 4.4376V4.4388Z" fill="white"/>
</svg>
