<svg width="20" height="20" viewBox="0 0 20 20" fill="none" xmlns="http://www.w3.org/2000/svg">
<path d="M12.5929 17.0714C12.7804 17.0714 12.9603 16.9969 13.0929 16.8643C13.2255 16.7317 13.3 16.5518 13.3 16.3643C13.3 16.1768 13.2255 15.9969 13.0929 15.8643C12.9603 15.7317 12.7804 15.6572 12.5929 15.6572H6.70002C6.1999 15.6572 5.72026 15.4585 5.36662 15.1048C5.01298 14.7512 4.81431 14.2716 4.81431 13.7714V6.22859C4.81431 5.72847 5.01298 5.24883 5.36662 4.89519C5.72026 4.54155 6.1999 4.34287 6.70002 4.34287H12.5929C12.7804 4.34287 12.9603 4.26837 13.0929 4.13576C13.2255 4.00314 13.3 3.82328 13.3 3.63573C13.3 3.44819 13.2255 3.26832 13.0929 3.13571C12.9603 3.00309 12.7804 2.92859 12.5929 2.92859H6.70002C5.82481 2.92859 4.98544 3.27627 4.36657 3.89514C3.7477 4.51401 3.40002 5.35337 3.40002 6.22859V13.7714C3.40002 14.6467 3.7477 15.486 4.36657 16.1049C4.98544 16.7238 5.82481 17.0714 6.70002 17.0714H12.5929ZM13.5273 6.41622C13.5955 6.35318 13.6754 6.3042 13.7626 6.27207C13.8497 6.23995 13.9424 6.2253 14.0352 6.22898C14.128 6.23266 14.2192 6.25458 14.3035 6.29351C14.3878 6.33243 14.4637 6.38758 14.5267 6.45582L17.3553 9.5201C17.476 9.65076 17.543 9.82212 17.543 10C17.543 10.1779 17.476 10.3493 17.3553 10.4799L14.5267 13.5442C14.3993 13.6819 14.2224 13.7633 14.035 13.7705C13.8475 13.7778 13.6649 13.7103 13.5273 13.5829C13.3896 13.4555 13.3082 13.2786 13.3009 13.0912C13.2937 12.9037 13.3612 12.7211 13.4886 12.5834L15.2216 10.7062H7.8786C7.69105 10.7062 7.51119 10.6317 7.37857 10.4991C7.24596 10.3665 7.17145 10.1866 7.17145 9.99907C7.17145 9.81153 7.24596 9.63166 7.37857 9.49905C7.51119 9.36643 7.69105 9.29193 7.8786 9.29193H15.2206L13.4877 7.4147C13.4246 7.34649 13.3756 7.26652 13.3435 7.17937C13.3114 7.09222 13.2967 6.99959 13.3004 6.90679C13.3041 6.81398 13.326 6.7228 13.3649 6.63846C13.4039 6.55413 13.459 6.47829 13.5273 6.41527V6.41622Z" fill="#242424"/>
</svg>
