<svg width="40" height="28" viewBox="0 0 40 28" fill="none" xmlns="http://www.w3.org/2000/svg">
<path d="M38.9333 23.2L22.2167 10.6667L26.1333 7.73333C26.298 7.60825 26.4317 7.44702 26.5242 7.26208C26.6166 7.07714 26.6654 6.87343 26.6667 6.66667C26.6667 4.89856 25.9643 3.20286 24.714 1.95262C23.4638 0.702379 21.7681 0 20 0C18.2319 0 16.5362 0.702379 15.286 1.95262C14.0357 3.20286 13.3333 4.89856 13.3333 6.66667C13.3333 7.02029 13.4738 7.35943 13.7239 7.60947C13.9739 7.85952 14.313 8 14.6667 8C15.0203 8 15.3594 7.85952 15.6095 7.60947C15.8595 7.35943 16 7.02029 16 6.66667C15.9993 5.66029 16.3779 4.69063 17.0604 3.95106C17.7429 3.21148 18.6792 2.75635 19.6823 2.67643C20.6855 2.59652 21.682 2.89768 22.473 3.51987C23.264 4.14206 23.7914 5.03954 23.95 6.03333L19.2167 9.58333L19.1833 9.61666L1.06667 23.2C0.618917 23.5358 0.288178 24.004 0.121297 24.5382C-0.0455832 25.0724 -0.0401439 25.6456 0.136845 26.1766C0.313833 26.7076 0.653398 27.1694 1.10744 27.4966C1.56148 27.8239 2.10698 28 2.66667 28H37.3333C37.893 28 38.4385 27.8239 38.8926 27.4966C39.3466 27.1694 39.6862 26.7076 39.8632 26.1766C40.0401 25.6456 40.0456 25.0724 39.8787 24.5382C39.7118 24.004 39.3811 23.5358 38.9333 23.2ZM37.3333 25.3333H2.66667L20 12.3333L37.3333 25.3333Z" fill="#727272"/>
</svg>
