<svg width="36" height="32" viewBox="0 0 36 32" fill="none" xmlns="http://www.w3.org/2000/svg">
<path d="M21.006 13.3666C20.8634 13.3656 20.7262 13.4211 20.6244 13.5209C20.5225 13.6208 20.4643 13.7568 20.4624 13.8994V17.881C20.4643 18.0239 20.5228 18.1602 20.625 18.2601C20.7272 18.36 20.8649 18.4152 21.0078 18.4138H33.0012C33.1441 18.4152 33.2818 18.36 33.384 18.2601C33.4862 18.1602 33.5447 18.0239 33.5466 17.881V13.8994C33.5447 13.7565 33.4862 13.6202 33.384 13.5203C33.2818 13.4204 33.1441 13.3652 33.0012 13.3666H21.0078H21.006ZM28.3608 0.701801C30.0204 0.781001 31.2138 1.1086 31.9698 1.8034C32.7168 2.491 33.1002 3.4864 33.1758 4.804V8.5786C33.172 8.90005 33.0408 9.20686 32.8109 9.43163C32.5811 9.6564 32.2715 9.78076 31.95 9.7774C31.7907 9.7793 31.6325 9.7498 31.4846 9.69059C31.3367 9.63137 31.2019 9.54359 31.0879 9.43227C30.9739 9.32095 30.8829 9.18826 30.8202 9.04179C30.7575 8.89532 30.7243 8.73792 30.7224 8.5786L30.7242 4.8724C30.6846 4.1884 30.5208 3.7636 30.2868 3.5476C30.06 3.3388 29.3688 3.1516 28.3014 3.0976H4.7646C3.798 3.1336 3.1698 3.3172 2.8656 3.5782C2.6316 3.778 2.4552 4.3288 2.4534 5.281L2.448 26.467C2.538 27.3922 2.7414 28.0096 3.0024 28.3174C3.2004 28.5514 3.8142 28.7854 4.7178 28.9006H28.3266C29.4318 28.9222 30.0834 28.7566 30.303 28.5352C30.546 28.2886 30.7224 27.6406 30.7224 26.5804V22.8994C30.7224 22.2388 31.2714 21.7006 31.95 21.7006C32.6268 21.7006 33.1758 22.2388 33.1758 22.8994V26.5804C33.1758 28.2004 32.8446 29.4118 32.0688 30.1984C31.2696 31.0084 29.9988 31.3324 28.3014 31.2964L4.572 31.291C2.9574 31.1038 1.8 30.661 1.1106 29.8456C0.486 29.1076 0.1386 28.0546 0 26.5822V5.2792C0.0036 3.7024 0.3816 2.5162 1.2492 1.7746C2.0448 1.0906 3.1932 0.757601 4.7178 0.700001H28.3608V0.701801ZM33.0012 10.969C34.6572 10.969 36 12.2812 36 13.8994V17.881C36 19.4992 34.6572 20.8114 33.0012 20.8114H21.0078C19.3518 20.8114 18.009 19.4974 18.009 17.881V13.8994C18.009 12.2812 19.3518 10.969 21.0078 10.969H33.0012ZM24.0066 14.461C23.1786 14.461 22.5072 15.109 22.5072 15.9064C22.5072 16.7056 23.1786 17.3518 24.0066 17.3518C24.8346 17.3518 25.506 16.7038 25.506 15.9064C25.506 15.1072 24.8346 14.4592 24.0066 14.4592V14.461Z" fill="#727272"/>
</svg>
