<svg width="25" height="25" viewBox="0 0 25 25" fill="none" xmlns="http://www.w3.org/2000/svg">
<path d="M14.1666 11.2499H8.33325M23.4999 23.4999L18.2662 18.2569L23.4999 23.4999ZM21.1666 11.2499C21.1666 13.88 20.1218 16.4023 18.2621 18.2621C16.4023 20.1218 13.88 21.1666 11.2499 21.1666C8.61985 21.1666 6.09751 20.1218 4.23778 18.2621C2.37804 16.4023 1.33325 13.88 1.33325 11.2499C1.33325 8.61985 2.37804 6.09751 4.23778 4.23778C6.09751 2.37804 8.61985 1.33325 11.2499 1.33325C13.88 1.33325 16.4023 2.37804 18.2621 4.23778C20.1218 6.09751 21.1666 8.61985 21.1666 11.2499V11.2499Z" stroke="#333333" stroke-width="2" stroke-linecap="round"/>
</svg>
